<?xml version="1.0" encoding="utf-8"?>
<!-- Generator: Adobe Illustrator 14.0.0, SVG Export Plug-In . SVG Version: 6.00 Build 43363)  -->
<!DOCTYPE svg PUBLIC "-//W3C//DTD SVG 1.1//EN" "http://www.w3.org/Graphics/SVG/1.1/DTD/svg11.dtd">
<svg version="1.1" id="Layer_1" xmlns="http://www.w3.org/2000/svg" xmlns:xlink="http://www.w3.org/1999/xlink" x="0px" y="0px"
	 width="160.75px" height="58.422px" viewBox="0 0 160.75 58.422" enable-background="new 0 0 160.75 58.422" xml:space="preserve">
<g>
	<path fill="#9C9E9F" d="M7.208,32.969h6.243v1.824H7.797c-1.066,0-1.964,0.785-2.301,2.301c-0.533,2.483,0.8,4.153,2.245,4.153
		h3.381v-2.386H7.671v-1.669h5.78v5.878h-6.58c-1.964,0-3.76-1.599-4.111-4.251c-0.056-0.505-0.056-1.01,0.015-1.515
		C3.139,34.653,5.061,32.969,7.208,32.969"/>
	<path fill="#9C9E9F" d="M16.79,37.571v-2.778h3.072c0.112,0,0.225,0,0.322,0.014c1.235,0.099,1.769,0.786,1.586,1.6
		c-0.099,0.449-0.448,0.813-1.095,1.038c-0.266,0.084-0.519,0.126-0.743,0.126H16.79z M16.79,43.07v-3.872h2.792l2.608,3.872h2.82
		l-2.792-4.055c0.142-0.028,0.268-0.056,0.394-0.098c0.533-0.168,0.996-0.463,1.347-0.842c0.575-0.645,0.842-1.459,0.744-2.356
		c-0.155-1.586-1.431-2.75-2.876-2.75h-7.366V43.07H16.79z"/>
	<path fill="#9C9E9F" d="M28.111,37.964c0.028-2.231,1.151-3.395,2.947-3.437c1.964-0.042,3.198,1.305,3.03,3.97
		c-0.141,2.343-1.319,3.311-3.593,3.003c-1.501-0.197-2.259-1.095-2.385-3.073C28.111,38.273,28.098,38.119,28.111,37.964
		 M25.629,38.96c0.379,3.157,2.356,4.7,6.468,4.349c3.1-0.266,4.643-2.02,4.559-5.289c-0.098-4.026-2.048-5.752-6.649-5.219
		c-2.834,0.337-4.405,2.119-4.434,5.107C25.572,38.259,25.587,38.61,25.629,38.96"/>
	<path fill="#9C9E9F" d="M37.567,32.969h2.329v6.299c0,1.389,1.011,2.329,2.946,2.217c1.74-0.098,2.441-0.772,2.441-2.217v-6.299
		h2.314v6.818c0,2.217-1.361,3.395-4.952,3.466c-3.424,0.069-5.079-1.432-5.079-3.579V32.969z"/>
	<path fill="#9C9E9F" d="M50.938,37.81v-3.017h3.339c0.084,0,0.168,0,0.254,0.014c0.603,0.071,1.052,0.351,1.289,0.688
		c0.281,0.435,0.31,0.926,0.043,1.445c-0.154,0.28-0.394,0.519-0.743,0.701c-0.226,0.113-0.464,0.169-0.759,0.169H50.938z
		 M50.938,43.07v-3.507h4.419c0.184,0,0.352-0.013,0.52-0.042c0.771-0.112,1.417-0.435,1.894-0.898
		c0.94-0.883,1.277-2.076,0.97-3.24c-0.407-1.502-1.629-2.413-3.242-2.413h-6.889V43.07H50.938z"/>
	<path fill="#9C9E9F" d="M64.069,32.969h4.561v1.824h-4.209c-0.87,0-1.403,0.266-1.938,0.954c-0.182,0.238-0.308,0.491-0.364,0.785
		c-0.056,0.211-0.069,0.436-0.056,0.646h6.621v1.796h-6.593c0,0.182,0.014,0.378,0.069,0.561c0.084,0.336,0.238,0.617,0.52,0.94
		c0.505,0.561,0.968,0.772,1.585,0.772h4.419v1.823h-4.896h-0.336c0,0-0.085,0-0.169-0.014c-0.379-0.028-0.8-0.126-1.248-0.295
		c-1.894-0.757-3.143-2.974-2.68-5.793c0.31-1.895,1.417-3.228,2.946-3.732c0.379-0.127,0.674-0.197,0.981-0.239
		c0.084,0,0.154-0.014,0.239-0.014c0.098,0,0.21-0.014,0.21-0.014H64.069z"/>
	<path fill="#646567" d="M7.096,46.761h4.013v1.824H6.928c-0.87,0-1.517,0.617-1.769,2.062c-0.056,0.281-0.084,0.562-0.084,0.898
		C5.048,54,5.987,55.038,7.04,55.038h4.11v1.823H6.702c-0.266,0-0.463-0.014-0.673-0.041c-2.161-0.352-3.802-2.539-3.311-6.075
		c0.309-2.216,1.515-3.521,3.409-3.9C6.408,46.789,6.66,46.761,7.096,46.761"/>
	<path fill="#646567" d="M14.363,51.362v-2.778h3.072c0.112,0,0.225,0,0.322,0.014c1.235,0.1,1.769,0.787,1.586,1.601
		c-0.099,0.449-0.449,0.813-1.095,1.038c-0.266,0.084-0.52,0.126-0.743,0.126H14.363z M14.363,56.862V52.99h2.792l2.608,3.872h2.821
		l-2.792-4.056c0.14-0.027,0.266-0.055,0.392-0.098c0.533-0.168,0.996-0.463,1.348-0.842c0.576-0.645,0.842-1.459,0.744-2.357
		c-0.154-1.584-1.432-2.748-2.877-2.748h-7.365v10.101H14.363z"/>
	<path fill="#646567" d="M27.859,46.761h4.56v1.824H28.21c-0.869,0-1.402,0.267-1.936,0.954c-0.183,0.238-0.309,0.49-0.365,0.785
		c-0.056,0.211-0.069,0.435-0.056,0.646h6.622v1.796h-6.594c0,0.182,0.014,0.379,0.069,0.562c0.084,0.337,0.239,0.616,0.52,0.94
		c0.505,0.561,0.968,0.771,1.585,0.771h4.42v1.823h-4.897h-0.336c0,0-0.085,0-0.169-0.014c-0.378-0.027-0.799-0.126-1.248-0.295
		c-1.894-0.757-3.143-2.974-2.68-5.794c0.309-1.894,1.417-3.228,2.946-3.731c0.379-0.127,0.674-0.196,0.981-0.238
		c0.084,0,0.155-0.014,0.239-0.014c0.098,0,0.21-0.015,0.21-0.015H27.859z"/>
	<path fill="#646567" d="M35.8,55.038v-6.454h2.624c1.122,0,2.076,1.067,2.034,3.438c-0.042,2.119-0.856,3.017-1.838,3.017H35.8z
		 M38.887,56.862h0.421l0.154-0.015c0,0,0.111,0,0.224-0.014c1.712-0.209,3.144-1.824,3.228-4.742
		c0.099-3.465-1.711-5.33-4.447-5.33h-4.995v10.101H38.887z"/>
	<rect x="43.825" y="46.76" fill="#646567" width="2.328" height="10.102"/>
	<polygon fill="#646567" points="46.462,48.584 46.462,46.761 56.059,46.761 56.059,48.584 52.425,48.584 52.425,56.863 
		50.097,56.863 50.097,48.584 	"/>
	<path fill="#646567" d="M64.715,46.761h4.012v1.824h-4.18c-0.87,0-1.517,0.617-1.769,2.062c-0.056,0.281-0.084,0.562-0.084,0.898
		c-0.028,2.455,0.911,3.493,1.965,3.493h4.109v1.823h-4.447c-0.266,0-0.463-0.014-0.674-0.041c-2.16-0.352-3.801-2.539-3.31-6.075
		c0.308-2.216,1.515-3.521,3.409-3.9C64.026,46.789,64.28,46.761,64.715,46.761"/>
	<path fill="#646567" d="M72.094,51.756c0.028-2.231,1.151-3.396,2.946-3.438c1.964-0.043,3.199,1.305,3.031,3.971
		c-0.141,2.342-1.319,3.311-3.592,3.002c-1.501-0.196-2.26-1.095-2.386-3.072C72.094,52.064,72.08,51.91,72.094,51.756
		 M69.611,52.752c0.379,3.155,2.356,4.699,6.468,4.349c3.1-0.267,4.642-2.021,4.558-5.289c-0.098-4.026-2.047-5.752-6.648-5.22
		c-2.834,0.338-4.405,2.119-4.435,5.107C69.554,52.049,69.569,52.4,69.611,52.752"/>
	<path fill="#646567" d="M83.99,51.756c0.027-2.231,1.15-3.396,2.945-3.438c1.965-0.043,3.199,1.305,3.031,3.971
		c-0.139,2.342-1.318,3.311-3.59,3.002c-1.502-0.196-2.26-1.095-2.387-3.072C83.99,52.064,83.977,51.91,83.99,51.756 M81.508,52.752
		c0.379,3.155,2.357,4.699,6.467,4.349c3.102-0.267,4.645-2.021,4.561-5.289c-0.1-4.026-2.049-5.752-6.65-5.22
		c-2.834,0.338-4.406,2.119-4.434,5.107C81.451,52.049,81.465,52.4,81.508,52.752"/>
	<path fill="#646567" d="M95.775,51.602v-3.018h3.34c0.084,0,0.168,0,0.252,0.014c0.604,0.072,1.053,0.352,1.291,0.688
		c0.279,0.435,0.309,0.927,0.043,1.445c-0.156,0.28-0.395,0.519-0.744,0.7c-0.225,0.113-0.463,0.17-0.758,0.17H95.775z
		 M95.775,56.862v-3.508h4.42c0.182,0,0.35-0.013,0.52-0.042c0.77-0.112,1.416-0.434,1.893-0.896
		c0.941-0.886,1.277-2.078,0.969-3.242c-0.406-1.502-1.627-2.412-3.24-2.412h-6.891v10.101H95.775z"/>
	<path fill="#646567" d="M108.908,46.761h4.559v1.824h-4.209c-0.869,0-1.402,0.267-1.936,0.954c-0.184,0.238-0.309,0.49-0.365,0.785
		c-0.057,0.211-0.07,0.435-0.057,0.646h6.623v1.796h-6.594c0,0.182,0.012,0.379,0.07,0.562c0.084,0.337,0.238,0.616,0.518,0.94
		c0.506,0.561,0.969,0.771,1.586,0.771h4.42v1.823h-4.896h-0.336c0,0-0.086,0-0.17-0.014c-0.379-0.027-0.799-0.126-1.248-0.295
		c-1.895-0.757-3.143-2.974-2.68-5.794c0.309-1.894,1.416-3.228,2.945-3.731c0.379-0.127,0.674-0.196,0.982-0.238
		c0.084,0,0.154-0.014,0.238-0.014c0.1,0,0.211-0.015,0.211-0.015H108.908z"/>
	<path fill="#646567" d="M116.848,51.362v-2.778h3.072c0.111,0,0.225,0,0.322,0.014c1.236,0.1,1.77,0.787,1.586,1.601
		c-0.098,0.449-0.449,0.813-1.094,1.038c-0.268,0.084-0.52,0.126-0.744,0.126H116.848z M116.848,56.862V52.99h2.793l2.607,3.872
		h2.82l-2.791-4.056c0.141-0.027,0.268-0.055,0.393-0.098c0.533-0.168,0.996-0.463,1.348-0.842c0.574-0.645,0.84-1.459,0.744-2.357
		c-0.156-1.584-1.434-2.748-2.877-2.748h-7.365v10.101H116.848z"/>
	<path fill="#646567" d="M128.998,52.807l1.318-3.534l1.375,3.534H128.998z M127.398,56.862l0.912-2.301h4.152l0.842,2.301h2.525
		l-4.336-10.101h-2.455l-4.123,10.101H127.398z"/>
	<polygon fill="#646567" points="135.324,48.584 135.324,46.761 144.92,46.761 144.92,48.584 141.287,48.584 141.287,56.863 
		138.959,56.863 138.959,48.584 	"/>
	<rect x="145.229" y="46.76" fill="#646567" width="2.33" height="10.102"/>
	<path fill="#646567" d="M148.568,56.862v-6.229c0-0.351,0.027-0.519,0.098-0.828c0.029-0.111,0.07-0.225,0.07-0.225
		s0.027-0.098,0.057-0.21c0.576-1.754,2.049-2.608,5.934-2.608h3.256v1.822h-3.408h-0.365h-0.463
		c-1.531,0.043-2.246,0.449-2.666,1.305c-0.141,0.281-0.182,0.478-0.182,0.604v0.449h7.084v1.697h-7.084v4.224H148.568z"/>
	<path fill="#646567" d="M157.57,19.049c0.283,1.436,0.629,4.067-0.736,6.703c-0.648,1.295-1.621,2.532-2.811,3.581
		c-0.588,0.536-1.232,1.023-1.902,1.485c-0.332,0.238-0.785,0.736-0.785,0.736l0.023,0.614c0.043,1.636,0.01,3.295-0.182,4.931
		c-0.168,1.614-0.609,3.318-1.604,4.613c-0.244,0.33-0.547,0.652-0.988,0.864c-0.438,0.239-1.086,0.139-1.436-0.165
		c-0.641-0.643-0.92-1.125-1.371-1.664c-0.812-1.037-1.549-1.982-2.178-2.798c-0.492-0.624-0.953-1.212-1.387-1.764
		c-0.217-0.277-0.426-0.545-0.629-0.803l-0.17-0.22c0.029,0.012,0.125,0.003,0.125,0.002c0.633,0.816,1.273,1.765,2.061,2.785
		c0.744,0.949,1.561,1.983,2.449,3.109l0.682,0.863c0.191,0.293,0.617,0.728,1.184,0.76c1.188-0.064,1.656-1.016,2.107-1.714
		c-0.297,0.464-0.607,0.931-1.088,1.297c-0.436,0.416-1.346,0.468-1.777-0.009c-0.707-0.855-1.213-1.617-1.797-2.386
		c-0.695-0.946-1.354-1.84-1.955-2.661l3.688,4.576c0,0,1.242,1.912,2.869-1.595c1.02-2.195,0.967-6.756,0.787-9.148
		c4.215-2.627,6.766-6.055,6.188-10.383c0.104-0.483,0.174-1.182,0.057-2.243c-0.035-0.501-0.629-1.909-1.098-2.717
		c-0.029-0.061-0.062-0.119-0.094-0.176c-0.105-0.278-0.211-0.532-0.307-0.742c-0.102-0.315,0.348,0.3,0.613,0.537
		c-0.85-1.652-0.879-1.796-0.346-1.196c-0.223-0.392-0.445-0.781-0.455-0.777c0.107,0.065,0.385,0.289,0.389,0.289
		c-1.186-2.128-3.232-4.171-5.723-5.208c-0.094-0.039-0.188-0.075-0.279-0.113c0.123-0.291,0.23-0.541,0.35-0.769
		c0.24-0.446,0.605-1.247,0.738-1.881c0.129-0.593,0.311-1.363,0.051-2.498c-0.127-0.558-0.639-1.443-1.518-1.744
		c-0.873-0.297-1.395-0.074-1.799,0.028c-0.396,0.132-0.9,0.366-1.322,0.611c-0.459,0.246-0.945,0.659-1.156,0.92
		c-0.596,1.052-0.297,1.014-0.344,1.484c-0.33,1.055-0.076,2.246,0.385,3.258c-1.473-0.103-2.527-0.012-2.432,0.169
		c-2.689,0.047-3.221,0.306-5.938,0.855c-1.793,0.415-3.791,1.054-5.775,2.064c-0.248,0.13-0.494,0.262-0.748,0.413l-0.1,0.059
		l-0.027,0.019l-0.004,0.002c-0.049,1.313,0.305,0.743,0.551,1.342l0.004-0.001l0.012-0.003l0.047-0.01l0.193-0.04l0.393-0.078
		c0.529-0.101,1.066-0.194,1.607-0.28c1.084-0.172,2.186-0.315,3.285-0.428c2.398-0.261,4.727-0.344,7.053-0.222
		c0.193,0.01,0.365,0.021,0.551,0.033c0.006,0.258,0.014,0.513,0.025,0.763c0.117,2.255,0.35,4.439,1.008,6.547
		c0.17,0.525,0.375,1.045,0.645,1.55c0.271,0.418,0.617,1.307,1.811,1.274c1.014-0.21,1.309-0.947,1.57-1.312l0.82-1.274
		c1.006-1.615,1.998-3.154,2.854-4.872c0.23,0.172,0.449,0.358,0.652,0.555c0.297,0.402,0.57,0.824,0.82,1.268
		c0.096,0.056,0.199,0.125,0.344,0.307c0.203,0.415,0.438,0.815,0.617,1.248c1.123,3.233-0.979,6.565-3.82,8.788
		c-1.182,0.969-2.49,1.837-3.883,2.63c0.416-1.003,0.539-2.317,0.219-3.401c-0.314-1.123-0.9-2.458-2.381-2.907
		c-1.557-0.314-2.633,0.716-3.391,1.531c-0.826,0.837-1.363,2.351-0.771,3.572c0.527,1.182,1.48,1.947,2.432,2.577
		c0.242,0.157,0.49,0.303,0.744,0.439c0.033,0.015,0.057,0.028,0.082,0.04c-1.043,0.388-1.938,0.756-2.973,0.945
		c-2.086,0.429-4.256,0.32-6.322-0.124c-2.07-0.446-4.064-1.219-5.873-2.222c0,0-0.504-0.424-0.971,0.374l0.193,0.222
		c0.186,0.205,0.377,0.399,0.572,0.587c0.389,0.377,0.797,0.73,1.217,1.061c0.846,0.659,1.744,1.239,2.688,1.717
		c1.881,0.965,3.932,1.536,5.973,1.673c0.508,0.038,1.018,0.05,1.521,0.033c0.252-0.004,0.504-0.014,0.754-0.037l0.137-0.011
		l0.016,0.02c0.596,0.759,1.188,1.508,1.766,2.249c1.164,1.479,2.293,2.921,3.385,4.316l0.402,0.523
		c0.203,0.248,0.451,0.463,0.795,0.6c0.738,0.304,1.523-0.094,1.879-0.451c0.773-0.772,1.139-1.529,1.514-2.394
		c0.604-1.717,0.721-3.335,0.822-4.871c0.039-0.768,0.055-1.514,0.051-2.241l-0.021-1.075l-0.014-0.306c0,0,3.992-3.017,5.082-4.885
		c1.119-1.857,1.393-3.675,1.377-4.873C158.072,20.821,157.836,19.918,157.57,19.049"/>
	<g>
		<path fill="#D11242" d="M112.787,11.33c0.139,0.209,0.316,0.447,0.547,0.707c-0.188-0.307-0.338-0.616-0.436-0.874
			c0.688,0.931,1.787,1.769,2.586,2.069c0,0.001,0.002,0.001,0.004,0.002c-0.031,0.045-0.055,0.093-0.062,0.147
			c0,0.063,0.271,0.187,0.357,0.334c0.018,0.042-0.076,0.082-0.133,0.143c0.162,0.065,0.139,0.147,0.047,0.187
			c0.035,0.022,0.072,0.043,0.072,0.043c-0.02,0.02-0.078,0.081-0.078,0.081c0.375,0.25,0.762,0.633,1.34,0.693
			c0.025,0.004,0.053,0.007,0.088,0.008c-0.355,0.291-0.459,0.499-0.932,0.895c-0.756,0.648-1.68,1.522-2.48,2.489
			c-0.428,0.536-0.82,1.069-1.18,1.635c-0.135,0.21-0.25,0.426-0.365,0.627c-0.594,1.106-1,2.237-1.16,3.383
			c-0.08,0.573-0.1,1.146-0.033,1.726l0.033,0.221l0.021,0.115c0.006,0.023,0.008,0.037,0.016,0.068l0.004,0.01
			c0.613-0.294,0.5,0.047,0.902,0.086l0.002-0.002l0.004-0.009l0.01-0.019l0.189-0.325l0.406-0.646
			c1.045-1.588,2.236-3.072,3.674-4.645l0.049,0.114l0.361,0.824c0.229,0.546,0.492,1.116,0.682,1.649
			c0.211,0.583,0.451,1.152,0.785,1.689c0.311,0.47,0.83,1.212,1.697,0.996c1.32-0.709,1.537-1.977,2.002-3.002
			c0.365-1.087,0.592-2.178,0.709-3.221c0.115-1.044,0.135-2.039,0.094-2.959c0,0-0.094-0.625-0.035-0.74
			c0,0,0.596-0.255,0.928-0.391c1.316-0.559,2.338-0.874,2.885-1.037c0.197-0.107,0.395-0.214,0.6-0.308
			c-0.748,0.091-2.328,0.564-3.906,1.299l-0.588,0.286l-0.123,0.135c0.047,0.445,0.072,0.883,0.084,1.302
			c0.023,0.836-0.02,1.591-0.088,2.157c0.064-0.664,0.045-1.38,0.006-2.308c-0.027,0.935-0.084,1.752-0.219,2.464
			c0.131-1.665-0.016-3.092-0.135-3.874c2.182-1.207,4.725-2.21,7.658-2.768c0,0-1.051-0.57-2.885-0.673
			c0.043-0.056,0.059-0.111,0.027-0.168c-0.053-0.078-0.893-0.114-1.277-0.191c-0.092-0.029,0.109-0.118,0.195-0.207
			c-0.504,0.029-0.543-0.054-0.34-0.147c-0.121-0.001-0.242,0.008-0.242,0.006c0.027-0.03,0.111-0.123,0.111-0.123
			c-1.311-0.008-2.816,0.179-3.963,0.75c-0.248,0.114-0.641,0.347-0.893,0.515c-0.127,0.078-0.443,0.181-0.551,0.231
			c-0.152,0.164-0.084,0.23-0.123,0.344c-0.141,0.054-0.305,0.125-0.482,0.208c0.014-0.143-0.023-0.251,0.02-0.449
			c-0.008-0.656-0.115-0.928-0.219-1.447c-0.074-0.247-0.131-0.487-0.207-0.727l-0.09-0.257c-0.328-0.876-0.729-1.65-1.395-2.239
			c-0.656-0.593-1.621-0.885-2.559-0.705c-0.908,0.207-1.891,0.397-2.543,1.236c-0.592,0.965-0.037,1.969,0.346,2.605
			c0.875,1.351,1.908,2.143,2.363,2.39l0.311,0.028C114.695,13.362,113.189,12.131,112.787,11.33"/>
	</g>
</g>
</svg>
