<?xml version="1.0" encoding="UTF-8" standalone="no"?>
<!-- Generator: Adobe Illustrator 20.1.0, SVG Export Plug-In . SVG Version: 6.00 Build 0)  -->

<svg
   xmlns:dc="http://purl.org/dc/elements/1.1/"
   xmlns:cc="http://creativecommons.org/ns#"
   xmlns:rdf="http://www.w3.org/1999/02/22-rdf-syntax-ns#"
   xmlns:svg="http://www.w3.org/2000/svg"
   xmlns="http://www.w3.org/2000/svg"
   xmlns:sodipodi="http://sodipodi.sourceforge.net/DTD/sodipodi-0.dtd"
   xmlns:inkscape="http://www.inkscape.org/namespaces/inkscape"
   version="1.1"
   id="Calque_1"
   x="0px"
   y="0px"
   width="725.07477"
   height="261.29343"
   viewBox="0 0 725.07478 261.29344"
   xml:space="preserve"
   sodipodi:docname="CF.svg"
   inkscape:version="0.92.2 (5c3e80d, 2017-08-06)"><metadata
     id="metadata39"><rdf:RDF><cc:Work
         rdf:about=""><dc:format>image/svg+xml</dc:format><dc:type
           rdf:resource="http://purl.org/dc/dcmitype/StillImage" /><dc:title></dc:title></cc:Work></rdf:RDF></metadata><defs
     id="defs37" /><sodipodi:namedview
     pagecolor="#ffffff"
     bordercolor="#666666"
     borderopacity="1"
     objecttolerance="10"
     gridtolerance="10"
     guidetolerance="10"
     inkscape:pageopacity="0"
     inkscape:pageshadow="2"
     inkscape:window-width="1366"
     inkscape:window-height="705"
     id="namedview35"
     showgrid="false"
     fit-margin-top="0"
     fit-margin-left="0"
     fit-margin-right="0"
     fit-margin-bottom="0"
     inkscape:zoom="1.11"
     inkscape:cx="250"
     inkscape:cy="229.84906"
     inkscape:window-x="-8"
     inkscape:window-y="-8"
     inkscape:window-maximized="1"
     inkscape:current-layer="Calque_1" /><style
     type="text/css"
     id="style2">
	.st0{fill:#FFFFFF;}
</style><path
     style="opacity:1;vector-effect:none;fill:#e1071b;fill-opacity:1;stroke:none;stroke-width:2.89682293px;stroke-linecap:butt;stroke-linejoin:miter;stroke-miterlimit:4;stroke-dasharray:none;stroke-dashoffset:0;stroke-opacity:1"
     d="m 361.98435,8.81955 -72.31573,51.50833 37.87967,-2.95972 34.61659,-24.30185 34.23602,24.54571 47.94647,2.12852 z"
     id="path41"
     inkscape:connector-curvature="0"
     sodipodi:nodetypes="ccccccc" /><g
     id="g32"
     style="fill:#007883;fill-opacity:1"
     transform="scale(2.8968229)"><path
       class="st0"
       d="m 94.4,0 v 56.3 h 61.5 V 0 Z m 28.7,44.2 c -0.6,2.9 -1.3,5.2 -2.7,7.9 -0.2,0.3 -0.5,0.3 -0.4,-0.3 0.7,-7.9 -0.9,-16.8 -1.2,-17.7 -2.2,-8.6 -6.1,-10 -9.3,-10.1 -1.1,0 -2.4,0.3 -2.9,0.4 -0.2,0 -0.6,0 -0.7,-0.1 -0.1,-0.1 -0.1,-0.2 0.1,-0.4 0.2,-0.2 0.5,-0.5 0.9,-0.7 3.1,-1.5 6.1,-1.5 8.5,-0.7 5.4,1.8 7.9,7.1 8.3,12.3 0.2,3.5 0.2,5.8 -0.6,9.4 z m -0.6,-21 c -0.7,-0.4 -1.3,-1.2 -1.4,-2.4 -0.1,-1.6 0.3,-2.9 2,-4.3 1.8,-1.6 3.5,-1.7 4.9,-0.6 1.7,1.3 1.4,3.1 1.1,4.1 -0.3,0.9 -0.9,2.1 -2.7,3.1 -1.8,1 -3.1,0.5 -3.9,0.1 z m 20.3,-1 c -0.2,0.2 -0.4,0.4 -0.8,0.5 -2.9,0.8 -6.2,4.3 -6.7,4.9 -0.7,0.8 -6,6.2 -8.6,16.3 -0.1,0.3 -0.5,1.9 -0.7,2.4 -0.3,0.7 -0.5,0.2 -0.5,-0.2 0,-0.6 0.2,-3.4 0.8,-7.9 0.6,-4.5 2,-10.1 5.3,-13.1 5.7,-5.3 10.6,-3.5 10.8,-3.4 0.4,0.2 0.6,0.3 0.4,0.5 z m -5.2,-3.3 -12.5,-8.9 -12.5,8.9 h -8.4 L 125.1,4 146,18.9 Z"
       id="path4"
       style="fill:#007883;fill-opacity:1"
       inkscape:connector-curvature="0" /><path
       class="st0"
       d="m 15.8,75.4 c 0,0.2 -0.1,0.3 -0.3,0.4 L 15,76.1 c -0.1,0.1 -0.2,0.1 -0.3,0.1 -0.3,-0.2 -0.5,-0.3 -0.6,-0.3 -1.3,-0.7 -2.8,-1.1 -4.3,-1.1 -3.1,0 -4.6,1.9 -4.6,5.7 0,1.9 0.3,3.4 1,4.6 0.9,1.7 2.4,2.5 4.5,2.5 1.4,0 2.6,-0.4 3.8,-1.2 0,0 0.1,-0.1 0.2,-0.2 0.1,-0.1 0.2,-0.1 0.2,-0.1 0,0 0.1,0 0.2,0.1 l 0.4,0.3 c 0.2,0.1 0.2,0.2 0.2,0.4 l -0.3,2 c -0.1,0.3 -0.2,0.4 -0.3,0.5 C 13.7,89.9 12,90.2 9.9,90.2 7.2,90.2 5.1,89.7 3.6,88.7 2.5,88 1.7,87.1 1.1,85.9 0.4,84.5 0,83.1 0,81.5 c 0,-2.6 0.9,-4.7 2.6,-6.4 1.9,-1.9 4.6,-2.9 8.1,-2.9 1.2,0 2.4,0.1 3.6,0.4 0.9,0.2 1.5,0.3 1.7,0.4 0.1,0 0.1,0.2 0.1,0.4 z"
       id="path6"
       style="fill:#007883;fill-opacity:1"
       inkscape:connector-curvature="0" /><path
       class="st0"
       d="m 26.2,81.5 v -1.2 h 1 c 1,0 1.8,-0.2 2.2,-0.5 0.6,-0.4 0.8,-1.3 0.8,-2.4 0,-1 -0.3,-1.6 -0.9,-2 -0.5,-0.3 -1.2,-0.5 -2.2,-0.5 h -1.7 v 15 H 20.8 V 72.5 c 1.3,0 2.6,0 3.9,0 l 3.4,-0.1 c 1.4,0 2.4,0.1 3.1,0.2 1,0.2 1.9,0.6 2.5,1.1 1.1,0.9 1.6,2.1 1.6,3.5 0,0.9 -0.3,1.8 -0.9,2.5 -0.7,1 -1.8,1.6 -3.3,2 0.4,0.9 1,2 2,3.3 1.4,1.8 2.8,2.8 4.1,3 l 0.1,0.1 -0.1,1.1 c 0,0.2 -0.1,0.3 -0.3,0.4 -0.7,0.2 -1.5,0.3 -2.3,0.3 -3.3,0.3 -6.1,-2.6 -8.4,-8.4"
       id="path8"
       style="fill:#007883;fill-opacity:1"
       inkscape:connector-curvature="0" /><path
       class="st0"
       d="m 56.5,89.4 c -0.2,0.1 -1,0.3 -2.6,0.4 -1.3,0.1 -2.2,0.1 -2.7,0.1 -2.9,0 -4.8,-0.1 -5.6,-0.2 -2.4,-0.4 -3.8,-1.3 -4.3,-2.8 -0.3,-0.9 -0.4,-2.6 -0.4,-5 v -3 -2.2 c 0,-0.9 0.2,-1.6 0.4,-2.1 0.7,-1.7 3,-2.5 7,-2.5 0.3,0 0.8,0 1.4,0 0.6,0 0.9,0 1.1,0 0.6,0 1.4,0 2.7,0.1 1.5,0.1 2.3,0.3 2.6,0.4 L 56,73 c 0,0 -0.1,0.8 -0.2,2.3 0,0.2 -0.1,0.4 -0.4,0.5 -0.2,0.1 -0.5,0.2 -0.7,0.3 -1,-0.6 -2,-1 -3.1,-1.1 -0.7,-0.1 -1.8,-0.2 -3.3,-0.2 -1.2,0 -1.9,0.2 -2.2,0.6 -0.2,0.3 -0.4,1.1 -0.4,2.4 v 1.8 h 7.4 L 53,82.2 h -7.4 v 1.3 c 0,2.3 0.2,3.6 0.7,3.9 0.2,0.1 0.8,0.2 1.6,0.2 1.7,0 3,0 3.7,-0.1 1.4,-0.2 2.5,-0.6 3.5,-1.1 0.2,0 0.4,0.1 0.7,0.3 0.2,0.2 0.4,0.4 0.4,0.5 l 0.3,2.2 v 0 m -9.6,-17.7 -1,-1.1 5.5,-3.7 1.9,2 c 0,0.1 0,0.2 -0.1,0.3 -0.1,0.1 -0.1,0.2 -0.2,0.3 -0.3,0.1 -0.5,0.2 -0.6,0.2 z"
       id="path10"
       style="fill:#007883;fill-opacity:1"
       inkscape:connector-curvature="0" /><path
       class="st0"
       d="M 61.2,89.8 V 72.5 c 0.2,0 1.3,0 3.3,-0.1 2,0 3.1,-0.1 3.3,-0.1 2.7,0 4.6,0.1 5.8,0.4 1.8,0.4 3.2,1.2 4.2,2.5 1.1,1.4 1.7,3.2 1.7,5.3 0,2.1 -0.5,3.9 -1.6,5.4 -1,1.4 -2.4,2.5 -4.1,3.1 -1.3,0.5 -3.6,0.7 -6.6,0.7 z M 66,74.7 v 12.7 h 1.1 c 2.4,0 4,-0.3 4.9,-0.8 1.5,-0.9 2.2,-2.9 2.2,-5.8 0,-2.7 -0.7,-4.5 -2.1,-5.4 -0.8,-0.5 -2.1,-0.8 -3.8,-0.8 h -1.1 c -0.5,0.1 -0.9,0.1 -1.2,0.1"
       id="path12"
       style="fill:#007883;fill-opacity:1"
       inkscape:connector-curvature="0" /><rect
       x="84.199997"
       y="72.5"
       class="st0"
       width="4.9000001"
       height="17.299999"
       id="rect14"
       style="fill:#007883;fill-opacity:1" /><polygon
       class="st0"
       points="92.7,72.5 109.8,72.5 109.8,75.2 103.7,75.2 103.7,89.8 98.8,89.8 98.8,75.2 92.7,75.2 "
       id="polygon16"
       style="fill:#007883;fill-opacity:1" /><polygon
       class="st0"
       points="126.7,89.8 121.9,89.8 121.9,72.5 135.2,72.5 135.2,75.2 126.7,75.2 126.7,79.5 133.9,79.5 133.9,82.1 126.7,82.1 "
       id="polygon18"
       style="fill:#007883;fill-opacity:1" /><path
       class="st0"
       d="m 147.5,72.2 c 1.6,0 2.9,0.1 3.9,0.4 1.6,0.4 3,1.3 4.1,2.5 1.3,1.5 2,3.4 2,5.7 0,2.9 -1,5.2 -3.1,6.9 -2,1.6 -4.5,2.4 -7.5,2.4 -2.9,0 -5.2,-0.8 -6.9,-2.3 -1.7,-1.5 -2.6,-3.6 -2.6,-6.4 0,-3 1.1,-5.3 3.2,-7 2,-1.4 4.2,-2.2 6.9,-2.2 m 4.9,9.5 c 0,-2.1 -0.4,-3.8 -1.2,-5 -0.9,-1.4 -2.2,-2.1 -3.9,-2.1 -1.5,0 -2.7,0.6 -3.5,1.8 -0.7,1 -1.1,2.4 -1.1,4.2 0,2.1 0.5,3.8 1.4,5.1 0.9,1.3 2.2,2 3.7,2 1.4,0 2.4,-0.5 3.3,-1.4 0.9,-1.1 1.3,-2.6 1.3,-4.6"
       id="path20"
       style="fill:#007883;fill-opacity:1"
       inkscape:connector-curvature="0" /><polygon
       class="st0"
       points="165.3,89.8 161.8,89.8 162,72.5 165.9,72.5 175.1,83.1 174.9,72.5 178.4,72.5 178.3,89.8 174.9,89.8 165.1,78.6 "
       id="polygon22"
       style="fill:#007883;fill-opacity:1" /><path
       class="st0"
       d="m 198.7,75.4 c 0,0.2 -0.1,0.3 -0.3,0.4 l -0.5,0.3 c -0.1,0.1 -0.2,0.1 -0.3,0.1 -0.3,-0.2 -0.5,-0.3 -0.6,-0.3 -1.3,-0.7 -2.8,-1.1 -4.3,-1.1 -3.1,0 -4.6,1.9 -4.6,5.7 0,1.9 0.3,3.4 1,4.6 0.9,1.7 2.4,2.5 4.5,2.5 1.4,0 2.6,-0.4 3.8,-1.2 0,0 0.1,-0.1 0.2,-0.2 0.1,-0.1 0.2,-0.1 0.2,-0.1 0,0 0.1,0 0.2,0.1 l 0.4,0.3 c 0.2,0.1 0.2,0.2 0.2,0.4 l -0.3,2 c -0.1,0.3 -0.2,0.4 -0.3,0.5 -1.4,0.5 -3.1,0.8 -5.2,0.8 -2.7,0 -4.8,-0.5 -6.3,-1.5 -1.1,-0.7 -1.9,-1.6 -2.5,-2.8 -0.7,-1.3 -1.1,-2.7 -1.1,-4.3 0,-2.6 0.9,-4.7 2.6,-6.4 1.9,-1.9 4.6,-2.9 8.1,-2.9 1.2,0 2.4,0.1 3.6,0.4 0.9,0.2 1.5,0.3 1.7,0.4 0.1,0 0.1,0.2 0.1,0.4 z"
       id="path24"
       style="fill:#007883;fill-opacity:1"
       inkscape:connector-curvature="0" /><rect
       x="203.5"
       y="72.5"
       class="st0"
       width="4.9000001"
       height="17.299999"
       id="rect26"
       style="fill:#007883;fill-opacity:1" /><path
       class="st0"
       d="m 229.3,89.4 c -0.2,0.1 -1,0.3 -2.6,0.4 -1.3,0.1 -2.2,0.1 -2.7,0.1 -2.9,0 -4.8,-0.1 -5.6,-0.2 -2.4,-0.4 -3.8,-1.3 -4.3,-2.8 -0.3,-0.9 -0.4,-2.6 -0.4,-5 v -3 -2.2 c 0,-0.9 0.2,-1.5 0.4,-2.1 0.7,-1.7 3,-2.5 7,-2.5 0.3,0 0.8,0 1.4,0 0.6,0 0.9,0 1.1,0 0.6,0 1.5,0 2.7,0.1 1.5,0.1 2.3,0.3 2.6,0.4 l 0.1,0.1 c 0,0 -0.1,0.8 -0.2,2.3 0,0.2 -0.1,0.4 -0.4,0.5 -0.2,0.1 -0.5,0.2 -0.7,0.3 -1,-0.6 -2,-1 -3.1,-1.1 -0.7,-0.1 -1.8,-0.2 -3.3,-0.2 -1.2,0 -1.9,0.2 -2.2,0.6 -0.2,0.3 -0.4,1.1 -0.4,2.4 v 1.8 h 7.4 l -0.1,2.6 h -7.4 v 1.3 c 0,2.3 0.2,3.6 0.7,3.9 0.2,0.1 0.8,0.2 1.5,0.2 1.7,0 3,0 3.7,-0.1 1.4,-0.2 2.5,-0.6 3.5,-1.1 0.2,0 0.4,0.1 0.7,0.3 0.2,0.2 0.4,0.4 0.4,0.5 l 0.2,2.2 v 0.3"
       id="path28"
       style="fill:#007883;fill-opacity:1"
       inkscape:connector-curvature="0" /><path
       class="st0"
       d="m 239.2,81.5 v -1.2 h 1 c 1,0 1.8,-0.2 2.2,-0.5 0.6,-0.4 0.8,-1.3 0.8,-2.4 0,-1 -0.3,-1.6 -0.9,-2 -0.5,-0.3 -1.2,-0.5 -2.2,-0.5 h -1.7 v 15 h -4.6 V 72.5 c 1.3,0 2.6,0 3.9,0 l 3.4,-0.1 c 1.4,0 2.4,0.1 3.1,0.2 1,0.2 1.9,0.6 2.5,1.1 1.1,0.9 1.6,2.1 1.6,3.5 0,0.9 -0.3,1.8 -0.9,2.5 -0.7,1 -1.8,1.6 -3.3,2 0.4,0.9 1,2 2,3.3 1.4,1.8 2.8,2.8 4.1,3 l 0.1,0.1 -0.1,1.1 c 0,0.2 -0.1,0.3 -0.3,0.4 -0.7,0.2 -1.5,0.3 -2.3,0.3 -3.3,0.3 -6.1,-2.6 -8.4,-8.4"
       id="path30"
       style="fill:#007883;fill-opacity:1"
       inkscape:connector-curvature="0" /></g></svg>