<?xml version="1.0" encoding="UTF-8" standalone="no"?>
<!-- Created with Inkscape (http://www.inkscape.org/) -->
<svg
   xmlns:svg="http://www.w3.org/2000/svg"
   xmlns="http://www.w3.org/2000/svg"
   version="1.0"
   width="639"
   height="135"
   viewBox="-0.647 -0.064 639 135"
   id="svg2"
   xml:space="preserve">
	<defs
   id="defs4">
	</defs>
	<g
   id="g6">
		<polygon
   points="96.457,0 33.404,20.663 33.404,56.631 63.059,46.904 63.059,79.623 96.457,68.672 96.457,0 "
   style="fill:#ee3224"
   id="polygon8" />
		<polygon
   points="33.404,56.631 0,67.588 0,134.889 63.059,114.217 63.059,79.623 33.404,89.338 33.404,56.631 "
   style="fill:#00adef"
   id="polygon10" />
		<polygon
   points="33.404,56.631 33.404,89.338 63.059,79.623 63.059,46.904 33.404,56.631 "
   style="fill:#002d62"
   id="polygon12" />
		<path
   d="M 637.828,98.285 C 637.828,108.861 632.144,114.217 620.355,114.217 L 578.18,114.217 C 566.133,114.217 560.801,108.715 560.801,97.776 L 560.801,93.99 L 565.963,93.99 C 568.289,93.99 569.268,94.769 569.502,97.441 C 570.012,103.365 572.016,106.289 579.305,106.289 L 620.625,106.289 C 627.252,106.289 629.145,103.975 629.145,98.033 L 629.145,92.695 C 629.145,86.759 627.252,84.433 620.625,84.433 L 578.701,84.433 C 567.094,84.433 561.228,78.826 561.228,68.173 L 561.228,63.181 C 561.228,52.529 567.082,46.904 578.701,46.904 L 620.355,46.904 C 632.009,46.904 636.89,52.154 636.89,62.49 L 636.89,66.275 L 631.722,66.275 C 629.232,66.275 628.177,65.431 628.031,62.923 C 627.679,57.321 625.347,54.825 618.82,54.825 L 578.355,54.825 C 571.986,54.825 569.923,57.321 569.923,63.345 L 569.923,67.224 C 569.923,73.253 571.986,75.749 578.355,75.749 L 620.355,75.749 C 632.144,75.749 637.828,81.11 637.828,91.657 L 637.828,98.285 L 637.828,98.285 z "
   style="fill:#002d62"
   id="path14" />
		<path
   d="M 539.971,114.217 L 533.772,114.217 C 531.709,114.217 530.93,113.016 530.93,111.287 L 530.93,46.904 L 537.217,46.904 C 538.852,46.904 539.971,48.029 539.971,49.752 L 539.971,114.217 L 539.971,114.217 z "
   style="fill:#002d62"
   id="path16" />
		<path
   d="M 518.197,113.865 L 518.097,114.217 L 508.722,114.217 C 506.49,114.217 504.943,113.502 503.648,112.242 L 474.644,84.006 C 473.871,83.262 472.91,83.338 472.148,84.1 L 443.918,111.885 C 442.266,113.508 440.994,114.217 438.574,114.217 L 428.678,114.217 L 428.578,113.865 L 465.685,78.592 L 432.632,47.174 L 432.72,46.904 L 442.441,46.904 C 444.691,46.904 446.132,47.525 447.439,48.802 L 472.066,72.907 C 472.939,73.774 473.929,73.745 474.82,72.907 L 499.781,48.884 C 501.176,47.536 502.793,46.904 504.767,46.904 L 513.972,46.904 L 514.066,47.174 L 481.265,78.592 L 518.197,113.865 z "
   style="fill:#002d62"
   id="path18" />
		<path
   d="M 415.852,114.217 L 409.641,114.217 C 407.578,114.217 406.817,113.016 406.817,111.287 L 406.817,46.904 L 413.098,46.904 C 414.733,46.904 415.852,48.029 415.852,49.752 L 415.852,114.217 z "
   style="fill:#002d62"
   id="path20" />
		<path
   d="M 395.613,54.826 L 362.742,54.826 C 362.062,54.826 361.535,55.26 361.535,56.033 L 361.535,114.217 L 355.254,114.217 C 353.186,114.217 352.412,113.016 352.412,111.287 L 352.412,54.826 L 321.17,54.826 C 319.453,54.826 318.328,53.888 318.328,52.084 L 318.328,46.904 L 392.771,46.904 C 394.505,46.904 395.613,47.853 395.613,49.658 L 395.613,54.826 z "
   style="fill:#002d62"
   id="path22" />
		<path
   d="M 222.955,114.217 L 212.555,114.217 C 209.959,114.217 207.909,113.596 206.18,111.885 L 149.45,56.033 C 148.618,55.213 147.645,55.693 147.645,56.806 L 147.645,114.216 L 141.352,114.216 C 139.301,114.216 138.522,113.015 138.522,111.286 L 138.522,46.904 L 149.022,46.904 C 151.512,46.904 153.657,47.525 155.133,48.978 L 212.028,105.099 C 212.901,105.96 213.833,105.527 213.833,104.408 L 213.833,46.904 L 220.208,46.904 C 221.837,46.904 222.956,48.029 222.956,49.752 L 222.956,114.217 L 222.955,114.217 z "
   style="fill:#002d62"
   id="path24" />
		<path
   d="M 287.859,46.904 L 276.498,46.904 L 236.473,114.217 L 243.446,114.217 C 245.684,114.217 247.337,113.397 248.268,111.803 L 254.379,101.385 C 254.848,100.588 255.234,100.354 256.184,100.354 L 308.086,100.354 C 308.947,100.354 309.445,100.635 309.891,101.385 L 316.008,111.639 C 317.039,113.338 318.504,114.217 321.17,114.217 L 327.879,114.217 L 287.859,46.904 z M 259.547,92.443 L 281.151,55.951 C 281.684,55.043 282.622,55.084 283.126,55.951 L 304.73,92.443 L 259.547,92.443 z "
   style="fill:#002d62"
   id="path26" />
	</g>
</svg>